<svg width="14" height="20" viewBox="0 0 14 20" fill="none" xmlns="http://www.w3.org/2000/svg">
<path fill-rule="evenodd" clip-rule="evenodd" d="M11.2544 4.25415C11.2544 1.90465 9.34975 0 7.00025 0C4.65074 0 2.74609 1.90465 2.74609 4.25415C2.74609 6.60366 4.65074 8.50831 7.00025 8.50831C9.34975 8.50831 11.2544 6.60366 11.2544 4.25415ZM4.63714 4.25411C4.63714 2.94883 5.69528 1.89069 7.00056 1.89069C8.30584 1.89069 9.36398 2.94883 9.36398 4.25411C9.36398 5.55939 8.30584 6.61753 7.00056 6.61753C5.69528 6.61753 4.63714 5.55939 4.63714 4.25411Z" fill="url(#paint0_linear_820_1828)"/>
<path fill-rule="evenodd" clip-rule="evenodd" d="M13.8604 15.959C13.8604 12.1704 10.7891 9.09912 7.00049 9.09912C3.21189 9.09912 0.140625 12.1704 0.140625 15.959C0.140625 17.7966 0.887641 18.9921 2.32244 19.5561L2.4293 19.597C3.28137 19.9134 4.10507 19.9917 5.92884 19.9995L7.94968 19.9999C9.85463 19.9951 10.6965 19.9208 11.565 19.5994L11.6785 19.5561C13.1133 18.9921 13.8604 17.7966 13.8604 15.959ZM2.03167 15.959C2.03167 13.2146 4.25642 10.9898 7.0008 10.9898C9.74518 10.9898 11.9699 13.2146 11.9699 15.959C11.9699 17.0472 11.6693 17.5282 10.9871 17.7964L10.9126 17.8247C10.3648 18.0245 9.71098 18.093 8.33025 18.1067L7.90479 18.1092H6.09681C4.34929 18.1049 3.6312 18.0389 3.01448 17.7964C2.33227 17.5282 2.03167 17.0472 2.03167 15.959Z" fill="url(#paint1_linear_820_1828)"/>
<defs>
<linearGradient id="paint0_linear_820_1828" x1="2.74609" y1="0" x2="2.74609" y2="8.50831" gradientUnits="userSpaceOnUse">
<stop stop-color="#FD3159"/>
<stop offset="1" stop-color="#FD5250"/>
</linearGradient>
<linearGradient id="paint1_linear_820_1828" x1="0.140625" y1="9.09912" x2="0.140625" y2="19.9999" gradientUnits="userSpaceOnUse">
<stop stop-color="#FD3159"/>
<stop offset="1" stop-color="#FD5250"/>
</linearGradient>
</defs>
</svg>
