<svg width="20" height="20" viewBox="0 0 20 20" fill="none" xmlns="http://www.w3.org/2000/svg">
<path fill-rule="evenodd" clip-rule="evenodd" d="M5 16.6666H10.8333C11.2936 16.6666 11.6667 17.0397 11.6667 17.5C11.6667 17.9602 11.2936 18.3333 10.8333 18.3333H5C3.61929 18.3333 2.5 17.214 2.5 15.8333V4.16663C2.5 2.78591 3.61929 1.66663 5 1.66663H10.05C10.1402 1.68406 10.2273 1.71496 10.3083 1.75829C10.3359 1.75347 10.3641 1.75347 10.3917 1.75829C10.4774 1.79836 10.5561 1.85181 10.625 1.91663L15.625 6.91663C15.6898 6.98551 15.7433 7.06428 15.7833 7.14996V7.22496C15.8079 7.29799 15.8247 7.37341 15.8333 7.44996V7.49996V10.8333C15.8333 11.2935 15.4602 11.6666 15 11.6666C14.5398 11.6666 14.1667 11.2935 14.1667 10.8333V8.33329H11.6667C10.286 8.33329 9.16667 7.214 9.16667 5.83329V3.33329H5C4.53976 3.33329 4.16667 3.70639 4.16667 4.16663V15.8333C4.16667 16.2935 4.53976 16.6666 5 16.6666ZM15.8333 15H16.6667C17.1269 15 17.5 15.3731 17.5 15.8333C17.5 16.2935 17.1269 16.6666 16.6667 16.6666H15.8333V17.5C15.8333 17.9602 15.4602 18.3333 15 18.3333C14.5398 18.3333 14.1667 17.9602 14.1667 17.5V16.6666H13.3333C12.8731 16.6666 12.5 16.2935 12.5 15.8333C12.5 15.3731 12.8731 15 13.3333 15H14.1667V14.1666C14.1667 13.7064 14.5398 13.3333 15 13.3333C15.4602 13.3333 15.8333 13.7064 15.8333 14.1666V15ZM10.8333 4.50829L12.9917 6.66663H11.6667C11.2064 6.66663 10.8333 6.29353 10.8333 5.83329V4.50829ZM5.83333 7.49996C5.83333 7.03972 6.20643 6.66663 6.66667 6.66663H7.5C7.96024 6.66663 8.33333 7.03972 8.33333 7.49996C8.33333 7.9602 7.96024 8.33329 7.5 8.33329H6.66667C6.20643 8.33329 5.83333 7.9602 5.83333 7.49996ZM10.8333 13.3333H6.66667C6.20643 13.3333 5.83333 13.7064 5.83333 14.1666C5.83333 14.6269 6.20643 15 6.66667 15H10.8333C11.2936 15 11.6667 14.6269 11.6667 14.1666C11.6667 13.7064 11.2936 13.3333 10.8333 13.3333ZM6.66667 9.99996H11.6667C12.1269 9.99996 12.5 10.3731 12.5 10.8333C12.5 11.2935 12.1269 11.6666 11.6667 11.6666H6.66667C6.20643 11.6666 5.83333 11.2935 5.83333 10.8333C5.83333 10.3731 6.20643 9.99996 6.66667 9.99996Z" fill="#7F7F7F"/>
</svg>
