<svg width="16" height="16" viewBox="0 0 16 16" fill="none" xmlns="http://www.w3.org/2000/svg">
<path fill-rule="evenodd" clip-rule="evenodd" d="M6.9959 0.994751C10.4044 0.994751 13.1676 3.75791 13.1676 7.16643C13.1676 8.41095 12.7992 9.56943 12.1656 10.5388L14.8879 13.3035C15.2754 13.6971 15.2705 14.3302 14.8769 14.7177C14.4834 15.1052 13.8503 15.1003 13.4628 14.7068L10.8134 12.0161C9.76304 12.8441 8.43716 13.3381 6.9959 13.3381C3.58737 13.3381 0.824219 10.575 0.824219 7.16643C0.824219 3.75791 3.58737 0.994751 6.9959 0.994751ZM10.1981 9.84035C10.1756 9.8589 10.1538 9.87859 10.1326 9.89942C10.0813 9.94999 10.0365 10.0047 9.99842 10.0626C9.23971 10.849 8.17492 11.3381 6.9959 11.3381C4.69194 11.3381 2.82422 9.47039 2.82422 7.16643C2.82422 4.86248 4.69194 2.99475 6.9959 2.99475C9.29986 2.99475 11.1676 4.86248 11.1676 7.16643C11.1676 8.18391 10.8033 9.11632 10.1981 9.84035Z" fill="#7F7F7F"/>
</svg>
