<svg width="24" height="24" viewBox="0 0 24 24" fill="none" xmlns="http://www.w3.org/2000/svg">
<path d="M19.5804 15.71C19.466 16.2052 19.1852 16.6462 18.7847 16.9592C18.3843 17.2723 17.8886 17.4385 17.3804 17.43H6.61043C6.12548 17.4402 5.65075 17.2898 5.26011 17.0022C4.86947 16.7147 4.58482 16.3061 4.45043 15.84C4.34065 15.4436 4.34632 15.0241 4.46678 14.6309C4.58725 14.2376 4.81748 13.8869 5.13043 13.62C5.51298 13.2984 5.82109 12.8976 6.03347 12.4452C6.24584 11.9928 6.3574 11.4997 6.36043 11V9.14C6.36308 7.64499 6.95814 6.21197 8.01527 5.15484C9.0724 4.09771 10.5054 3.50264 12.0004 3.5H12.5204C13.5439 3.63107 14.5193 4.0123 15.3604 4.61C16.4904 5.47 17.3104 6.77 17.5804 10.09V11.09C17.5948 11.5674 17.709 12.0365 17.9157 12.4671C18.1224 12.8977 18.4169 13.2802 18.7804 13.59C19.0953 13.8361 19.3364 14.164 19.4775 14.5379C19.6186 14.9118 19.6542 15.3173 19.5804 15.71Z" fill="#7F7F7F"/>
<path d="M12.0004 20.5C11.492 20.5421 10.9831 20.4264 10.5428 20.1687C10.1026 19.911 9.75256 19.5239 9.54039 19.06C9.49825 18.9346 9.4814 18.8021 9.49082 18.6702C9.50024 18.5383 9.53574 18.4095 9.59526 18.2914C9.65479 18.1733 9.73715 18.0681 9.83759 17.9821C9.93803 17.896 10.0545 17.8307 10.1804 17.79C10.4196 17.7097 10.6803 17.7227 10.9103 17.8266C11.1403 17.9305 11.3225 18.1174 11.4204 18.35C11.595 18.4546 11.7973 18.5034 12.0004 18.49C12.2001 18.5014 12.3987 18.4526 12.5704 18.35C12.6645 18.1007 12.8539 17.899 13.0967 17.7893C13.3396 17.6796 13.6161 17.6708 13.8654 17.765C14.1147 17.8591 14.3164 18.0485 14.4261 18.2913C14.5358 18.5342 14.5445 18.8107 14.4504 19.06C14.2412 19.524 13.8932 19.9117 13.4544 20.1696C13.0156 20.4275 12.5076 20.5429 12.0004 20.5Z" fill="#DADADA"/>
<path d="M21.1202 5.00002C21.1202 5.53996 20.96 6.06778 20.6601 6.51673C20.3601 6.96567 19.9337 7.31558 19.4349 7.52221C18.936 7.72884 18.3871 7.7829 17.8576 7.67756C17.328 7.57223 16.8416 7.31222 16.4598 6.93042C16.078 6.54862 15.818 6.06218 15.7126 5.53262C15.6073 5.00305 15.6613 4.45414 15.868 3.95529C16.0746 3.45645 16.4245 3.03008 16.8735 2.73011C17.3224 2.43013 17.8502 2.27002 18.3902 2.27002C19.1142 2.27002 19.8086 2.55764 20.3206 3.06962C20.8325 3.58159 21.1202 4.27598 21.1202 5.00002Z" fill="#FD5250"/>
<path d="M18.3896 1C17.5985 1 16.8252 1.2346 16.1674 1.67412C15.5096 2.11365 14.9969 2.73836 14.6941 3.46927C14.3914 4.20017 14.3122 5.00444 14.4665 5.78036C14.6208 6.55629 15.0018 7.26902 15.5612 7.82843C16.1206 8.38784 16.8334 8.7688 17.6093 8.92314C18.3852 9.07748 19.1895 8.99827 19.9204 8.69552C20.6513 8.39277 21.276 7.88008 21.7155 7.22228C22.1551 6.56448 22.3896 5.79113 22.3896 5C22.3896 3.93913 21.9682 2.92172 21.2181 2.17157C20.4679 1.42143 19.4505 1 18.3896 1ZM18.3896 7.73C17.8497 7.73 17.3219 7.56989 16.8729 7.26991C16.424 6.96994 16.0741 6.54357 15.8675 6.04473C15.6608 5.54588 15.6068 4.99697 15.7121 4.4674C15.8174 3.93784 16.0775 3.4514 16.4592 3.0696C16.841 2.6878 17.3275 2.42779 17.8571 2.32246C18.3866 2.21712 18.9355 2.27118 19.4344 2.47781C19.9332 2.68444 20.3596 3.03435 20.6596 3.48329C20.9595 3.93224 21.1197 4.46006 21.1197 5C21.1197 5.35851 21.049 5.71351 20.9118 6.04473C20.7746 6.37594 20.5736 6.6769 20.3201 6.9304C20.0665 7.18391 19.7656 7.385 19.4344 7.52219C19.1032 7.65939 18.7482 7.73 18.3896 7.73Z" fill="#F2F3F5"/>
</svg>
