<svg width="26" height="26" viewBox="0 0 26 26" fill="none" xmlns="http://www.w3.org/2000/svg">
<path d="M16.4335 17.8429C15.9043 18.1195 15.5326 18.6156 15.4229 19.1914C15.3133 19.7672 15.4777 20.3604 15.8697 20.8039C16.8215 21.882 17.5897 23.1021 18.1448 24.4178C19.54 23.7656 20.7983 22.8653 21.8551 21.763C23.4896 20.0876 24.5737 18.2169 25.1071 16.1508C22.1081 15.8681 19.0904 16.4568 16.4335 17.8429Z" fill="#DEB01E"/>
<path d="M12.2029 9.6304C13.2249 9.66079 14.1005 8.92285 14.2181 7.93211C14.5573 5.10309 15.4459 2.82844 16.6132 0.995514C15.4494 0.662428 14.242 0.496721 13.0292 0.503625C9.54111 0.503625 6.58106 1.73115 4.14903 4.18619C3.6134 4.72579 3.12516 5.30831 2.68945 5.9276C5.29413 8.16942 8.60722 9.47367 12.0775 9.62336L12.2029 9.6304Z" fill="#E8DD91"/>
<path d="M9.58696 13.0358C9.59507 12.9971 9.60229 12.9575 9.61041 12.9188C9.7962 11.9398 9.18405 10.9847 8.20045 10.7189C5.5005 9.98683 3.39322 8.84818 1.7442 7.51331C0.919093 9.17699 0.505335 11.0058 0.50293 12.9998C0.50293 16.3893 1.70571 19.304 4.11128 21.7438C6.93467 19.564 8.87474 16.4787 9.58696 13.0358Z" fill="#FE5250"/>
<path d="M21.8819 4.23731C20.957 3.26933 19.8762 2.45522 18.6822 1.82715C16.3396 5.25093 15.5515 9.46678 16.5045 13.4767C16.6254 13.9885 16.9538 14.4306 17.4147 14.702C17.8755 14.9735 18.4295 15.0511 18.9501 14.9172C21.0625 14.364 23.2536 14.153 25.4361 14.2924C25.4776 13.8692 25.5001 13.438 25.5001 12.9998C25.5001 9.64721 24.2941 6.72638 21.8819 4.23731Z" fill="#B34B99"/>
<path d="M11.5329 19.572C11.1218 19.2315 10.5868 19.0681 10.0501 19.1192C9.51335 19.1703 9.02079 19.4314 8.68497 19.843C7.74474 21.0005 6.67517 22.052 5.49609 22.9783C7.6611 24.6555 10.1719 25.4949 13.0285 25.4967C13.9476 25.4989 14.8642 25.4027 15.7619 25.2098C14.8326 23.0288 13.3827 21.0959 11.5329 19.572Z" fill="#FD9800"/>
</svg>
