<svg width="40" height="40" viewBox="0 0 40 40" fill="none" xmlns="http://www.w3.org/2000/svg">
<circle cx="20" cy="20" r="20" fill="white"/>
<path d="M23.4335 24.8429C22.9043 25.1195 22.5326 25.6156 22.4229 26.1914C22.3133 26.7672 22.4777 27.3604 22.8697 27.8039C23.8215 28.882 24.5897 30.1021 25.1448 31.4178C26.54 30.7656 27.7983 29.8653 28.8551 28.763C30.4896 27.0876 31.5737 25.2169 32.1071 23.1508C29.1081 22.8681 26.0904 23.4568 23.4335 24.8429Z" fill="#DEB01E"/>
<path d="M19.2029 16.6304C20.2249 16.6608 21.1005 15.9229 21.2181 14.9321C21.5573 12.1031 22.4459 9.82844 23.6132 7.99551C22.4494 7.66243 21.242 7.49672 20.0292 7.50363C16.5411 7.50363 13.5811 8.73115 11.149 11.1862C10.6134 11.7258 10.1252 12.3083 9.68945 12.9276C12.2941 15.1694 15.6072 16.4737 19.0775 16.6234L19.2029 16.6304Z" fill="#E8DD91"/>
<path d="M16.587 20.0358C16.5951 19.9971 16.6023 19.9575 16.6104 19.9188C16.7962 18.9398 16.1841 17.9847 15.2004 17.7189C12.5005 16.9868 10.3932 15.8482 8.7442 14.5133C7.91909 16.177 7.50534 18.0058 7.50293 19.9998C7.50293 23.3893 8.70571 26.304 11.1113 28.7438C13.9347 26.564 15.8747 23.4787 16.587 20.0358Z" fill="#FE5250"/>
<path d="M28.8819 11.2373C27.957 10.2693 26.8762 9.45522 25.6822 8.82715C23.3396 12.2509 22.5515 16.4668 23.5045 20.4767C23.6254 20.9885 23.9538 21.4306 24.4147 21.702C24.8755 21.9735 25.4295 22.0511 25.9501 21.9172C28.0625 21.364 30.2536 21.153 32.4361 21.2924C32.4776 20.8692 32.5001 20.438 32.5001 19.9998C32.5001 16.6472 31.2941 13.7264 28.8819 11.2373Z" fill="#B34B99"/>
<path d="M18.5329 26.572C18.1218 26.2315 17.5868 26.0681 17.0501 26.1192C16.5133 26.1703 16.0208 26.4314 15.685 26.843C14.7447 28.0005 13.6752 29.052 12.4961 29.9783C14.6611 31.6555 17.1719 32.4949 20.0285 32.4967C20.9476 32.4989 21.8642 32.4027 22.7619 32.2098C21.8326 30.0288 20.3827 28.0959 18.5329 26.572Z" fill="#FD9800"/>
</svg>
