<svg width="24" height="24" viewBox="0 0 24 24" fill="#000000" xmlns="http://www.w3.org/2000/svg">
<circle cx="11.9677" cy="11.4999" r="10.6493" fill="#7F7F7F"/>
<path fill-rule="evenodd" clip-rule="evenodd" d="M11.8059 8.811C9.9318 9.49616 5.95616 7.54284 3.04382 5.84862C2.78293 6.25637 2.54905 6.68307 2.34473 7.1262C3.84075 8.32729 5.3101 8.80307 6.54382 9.20254C7.99612 9.6728 9.1219 10.0373 9.58025 11.3549C10.1595 13.02 7.3457 16.9387 5.11406 19.6867C5.43875 19.9636 5.78028 20.2213 6.1369 20.4581C6.40906 20.1373 6.6666 19.7988 6.92077 19.4647C7.94301 18.1213 8.91098 16.8491 10.5585 17.0782C12.0554 17.2864 13.9061 19.3969 15.4877 21.6526C15.8863 21.5155 16.2742 21.3553 16.6498 21.1737C16.4608 20.9071 16.2636 20.6424 16.0681 20.3798C14.9557 18.8859 13.8969 17.464 14.6884 16.1933C15.6351 14.6734 19.4971 13.8514 22.5095 13.4325C22.5976 12.93 22.6505 12.4153 22.6655 11.8912C21.6901 11.8983 20.6898 12.1659 19.7411 12.4196C18.1501 12.8452 16.704 13.232 15.7628 12.2869C14.3703 10.8886 15.4097 5.07615 16.1464 1.75972C15.7849 1.60768 15.4133 1.47503 15.0329 1.36304C14.5409 2.30525 14.3143 3.45416 14.094 4.57176C13.7237 6.44948 13.3709 8.23883 11.8059 8.811Z" fill="white"/>
</svg>
