<svg width="18" height="18" viewBox="0 0 18 18" fill="none" xmlns="http://www.w3.org/2000/svg">
<path fill-rule="evenodd" clip-rule="evenodd" d="M7.75 0.499954C9.10174 0.493842 10.4299 0.854147 11.5932 1.54256C12.7565 2.23098 13.7116 3.22177 14.3568 4.4096C15.002 5.59744 15.3132 6.93791 15.2575 8.28851C15.2017 9.63912 14.7809 10.9494 14.04 12.08L17.35 15.44C17.5754 15.6694 17.7005 15.9789 17.6977 16.3006C17.6949 16.6222 17.5644 16.9295 17.335 17.155C17.1056 17.3804 16.796 17.5055 16.4744 17.5026C16.1528 17.4998 15.8454 17.3694 15.62 17.14L12.39 13.87C11.0736 14.925 9.43699 15.4999 7.75 15.5C5.76088 15.5 3.85322 14.7098 2.4467 13.3033C1.04018 11.8967 0.25 9.98908 0.25 7.99995C0.25 6.01083 1.04018 4.10318 2.4467 2.69665C3.85322 1.29013 5.76088 0.499954 7.75 0.499954ZM11.65 11.23L11.57 11.3C11.5076 11.3616 11.4508 11.4285 11.4 11.5C10.5004 12.4006 9.28324 12.9124 8.01029 12.9252C6.73734 12.9379 5.51018 12.4508 4.59264 11.5683C3.67509 10.6859 3.1404 9.47869 3.10352 8.2062C3.06664 6.93372 3.5305 5.69757 4.3954 4.76347C5.2603 3.82939 6.45717 3.27194 7.72873 3.21097C9.00029 3.15001 10.245 3.59039 11.1953 4.43745C12.1456 5.28451 12.7256 6.47061 12.8106 7.74079C12.8957 9.01096 12.4789 10.2638 11.65 11.23Z" fill="#FD5250"/>
</svg>
