<svg width="16" height="13" viewBox="0 0 16 13" fill="none" xmlns="http://www.w3.org/2000/svg">
<path d="M15.4899 2.76003C15.4999 2.86312 15.4999 2.96694 15.4899 3.07003L15.3799 4.47003L14.9299 10.22C14.9014 10.6521 14.7536 11.0679 14.5029 11.421C14.2522 11.7741 13.9084 12.0507 13.5099 12.22C13.2164 12.3471 12.8997 12.4118 12.5799 12.41C12.0417 12.4105 11.5195 12.227 11.0999 11.89L10.6299 11.51C10.5524 11.4401 10.4539 11.3978 10.3499 11.39H7.79986H3.74986H3.44986C2.91388 11.3176 2.41831 11.0656 2.04413 10.675C1.66995 10.2845 1.4393 9.77861 1.38986 9.24003L1.23986 7.24003L1.09986 5.44003L0.909857 3.07003C0.899839 2.95024 0.899839 2.82982 0.909857 2.71003C0.92672 2.57081 0.956858 2.43352 0.999857 2.30003C1.10364 1.92875 1.29187 1.5865 1.54986 1.30003C1.77056 1.05795 2.03925 0.864466 2.33882 0.731899C2.63838 0.599332 2.96227 0.530584 3.28986 0.530029H13.1699C13.4958 0.531966 13.8177 0.601383 14.1155 0.733906C14.4132 0.866429 14.6803 1.05919 14.8999 1.30003C15.2644 1.70071 15.4737 2.21855 15.4899 2.76003Z" fill="#7F7F7F"/>
</svg>
