<svg width="24" height="24" viewBox="0 0 24 24" fill="none" xmlns="http://www.w3.org/2000/svg">
<circle cx="12.0003" cy="10.9998" r="7.87335" stroke="black" stroke-width="2"/>
<circle cx="12.0003" cy="10.9998" r="7.87335" stroke="black" stroke-opacity="0.2" stroke-width="2"/>
<circle cx="12.0003" cy="10.9998" r="7.87335" stroke="black" stroke-opacity="0.2" stroke-width="2"/>
<path fill-rule="evenodd" clip-rule="evenodd" d="M6.31055 17.5096C6.42347 15.1832 8.92768 13.3237 12.0004 13.3237C15.0731 13.3237 17.5773 15.1832 17.6902 17.5096C16.5068 18.9589 14.401 19.9233 12.0004 19.9233C9.59973 19.9233 7.49393 18.9589 6.31055 17.5096Z" fill="black"/>
<path fill-rule="evenodd" clip-rule="evenodd" d="M6.31055 17.5096C6.42347 15.1832 8.92768 13.3237 12.0004 13.3237C15.0731 13.3237 17.5773 15.1832 17.6902 17.5096C16.5068 18.9589 14.401 19.9233 12.0004 19.9233C9.59973 19.9233 7.49393 18.9589 6.31055 17.5096Z" fill="black" fill-opacity="0.2"/>
<path fill-rule="evenodd" clip-rule="evenodd" d="M6.31055 17.5096C6.42347 15.1832 8.92768 13.3237 12.0004 13.3237C15.0731 13.3237 17.5773 15.1832 17.6902 17.5096C16.5068 18.9589 14.401 19.9233 12.0004 19.9233C9.59973 19.9233 7.49393 18.9589 6.31055 17.5096Z" fill="black" fill-opacity="0.2"/>
<circle cx="11.9997" cy="9.656" r="3.05834" fill="black"/>
<circle cx="11.9997" cy="9.656" r="3.05834" fill="black" fill-opacity="0.2"/>
<circle cx="11.9997" cy="9.656" r="3.05834" fill="black" fill-opacity="0.2"/>
</svg>
