<svg width="10" height="10" viewBox="0 0 14 14" fill="none" xmlns="http://www.w3.org/2000/svg">
<path d="M13.9499 5.36485C13.8584 5.08191 13.6075 4.88096 13.3106 4.85421L9.2777 4.48802L7.68299 0.755432C7.5654 0.481882 7.29761 0.30481 7.00007 0.30481C6.70253 0.30481 6.43474 0.481882 6.31716 0.756071L4.72244 4.48802L0.68891 4.85421C0.392547 4.8816 0.142237 5.08191 0.0502358 5.36485C-0.0417648 5.64778 0.0431999 5.95811 0.267392 6.15373L3.31578 8.82718L2.41688 12.7868C2.35111 13.078 2.46411 13.3789 2.70568 13.5535C2.83552 13.6474 2.98743 13.6951 3.14063 13.6951C3.27271 13.6951 3.40373 13.6595 3.52132 13.5892L7.00007 11.51L10.4775 13.5892C10.732 13.7422 11.0528 13.7283 11.2938 13.5535C11.5355 13.3784 11.6484 13.0773 11.5826 12.7868L10.6837 8.82718L13.7321 6.15426C13.9563 5.95811 14.0419 5.64831 13.9499 5.36485Z" fill="#FFC107"/>
</svg>
