<svg width="18" height="18" viewBox="0 0 18 18" fill="none" xmlns="http://www.w3.org/2000/svg">
<path d="M17.8197 8.9947L10.4892 0.956543V5.75226H8.93073C4.09814 5.75226 0.180664 9.66973 0.180664 14.5023V17.0438L0.872918 16.2852C3.2265 13.7064 6.55669 12.2372 10.0481 12.2372H10.4892V17.0329L17.8197 8.9947Z" fill="black"/>
<path d="M17.8197 8.9947L10.4892 0.956543V5.75226H8.93073C4.09814 5.75226 0.180664 9.66973 0.180664 14.5023V17.0438L0.872918 16.2852C3.2265 13.7064 6.55669 12.2372 10.0481 12.2372H10.4892V17.0329L17.8197 8.9947Z" fill="black" fill-opacity="0.2"/>
<path d="M17.8197 8.9947L10.4892 0.956543V5.75226H8.93073C4.09814 5.75226 0.180664 9.66973 0.180664 14.5023V17.0438L0.872918 16.2852C3.2265 13.7064 6.55669 12.2372 10.0481 12.2372H10.4892V17.0329L17.8197 8.9947Z" fill="black" fill-opacity="0.2"/>
</svg>
