<svg width="14" height="14" viewBox="0 0 14 14" fill="none" xmlns="http://www.w3.org/2000/svg">
<path fill-rule="evenodd" clip-rule="evenodd" d="M12.9687 5.53466C12.8901 5.2811 12.6746 5.10101 12.4196 5.07703L8.95612 4.74887L7.58655 1.40383C7.48556 1.15869 7.25558 1 7.00005 1C6.74452 1 6.51453 1.15869 6.41355 1.40441L5.04398 4.74887L1.57991 5.07703C1.32538 5.10159 1.11041 5.2811 1.0314 5.53466C0.95239 5.78821 1.02536 6.06632 1.2179 6.24163L3.83591 8.6375L3.06392 12.186C3.00743 12.4469 3.10448 12.7166 3.31194 12.8731C3.42346 12.9572 3.55392 13 3.68549 13C3.79892 13 3.91144 12.9681 4.01243 12.905L7.00005 11.0418L9.98657 12.905C10.2051 13.0422 10.4806 13.0297 10.6876 12.8731C10.8952 12.7162 10.9921 12.4464 10.9356 12.186L10.1636 8.6375L12.7816 6.24211C12.9742 6.06632 13.0477 5.78869 12.9687 5.53466Z" fill="black"/>
<path fill-rule="evenodd" clip-rule="evenodd" d="M12.9687 5.53466C12.8901 5.2811 12.6746 5.10101 12.4196 5.07703L8.95612 4.74887L7.58655 1.40383C7.48556 1.15869 7.25558 1 7.00005 1C6.74452 1 6.51453 1.15869 6.41355 1.40441L5.04398 4.74887L1.57991 5.07703C1.32538 5.10159 1.11041 5.2811 1.0314 5.53466C0.95239 5.78821 1.02536 6.06632 1.2179 6.24163L3.83591 8.6375L3.06392 12.186C3.00743 12.4469 3.10448 12.7166 3.31194 12.8731C3.42346 12.9572 3.55392 13 3.68549 13C3.79892 13 3.91144 12.9681 4.01243 12.905L7.00005 11.0418L9.98657 12.905C10.2051 13.0422 10.4806 13.0297 10.6876 12.8731C10.8952 12.7162 10.9921 12.4464 10.9356 12.186L10.1636 8.6375L12.7816 6.24211C12.9742 6.06632 13.0477 5.78869 12.9687 5.53466Z" fill="black" fill-opacity="0.2"/>
<path fill-rule="evenodd" clip-rule="evenodd" d="M12.9687 5.53466C12.8901 5.2811 12.6746 5.10101 12.4196 5.07703L8.95612 4.74887L7.58655 1.40383C7.48556 1.15869 7.25558 1 7.00005 1C6.74452 1 6.51453 1.15869 6.41355 1.40441L5.04398 4.74887L1.57991 5.07703C1.32538 5.10159 1.11041 5.2811 1.0314 5.53466C0.95239 5.78821 1.02536 6.06632 1.2179 6.24163L3.83591 8.6375L3.06392 12.186C3.00743 12.4469 3.10448 12.7166 3.31194 12.8731C3.42346 12.9572 3.55392 13 3.68549 13C3.79892 13 3.91144 12.9681 4.01243 12.905L7.00005 11.0418L9.98657 12.905C10.2051 13.0422 10.4806 13.0297 10.6876 12.8731C10.8952 12.7162 10.9921 12.4464 10.9356 12.186L10.1636 8.6375L12.7816 6.24211C12.9742 6.06632 13.0477 5.78869 12.9687 5.53466Z" fill="black" fill-opacity="0.2"/>
<path fill-rule="evenodd" clip-rule="evenodd" d="M12.9687 5.53466C12.8901 5.2811 12.6746 5.10101 12.4196 5.07703L8.95612 4.74887L7.58655 1.40383C7.48556 1.15869 7.25558 1 7.00005 1C6.74452 1 6.51453 1.15869 6.41355 1.40441L5.04398 4.74887L1.57991 5.07703C1.32538 5.10159 1.11041 5.2811 1.0314 5.53466C0.95239 5.78821 1.02536 6.06632 1.2179 6.24163L3.83591 8.6375L3.06392 12.186C3.00743 12.4469 3.10448 12.7166 3.31194 12.8731C3.42346 12.9572 3.55392 13 3.68549 13C3.79892 13 3.91144 12.9681 4.01243 12.905L7.00005 11.0418L9.98657 12.905C10.2051 13.0422 10.4806 13.0297 10.6876 12.8731C10.8952 12.7162 10.9921 12.4464 10.9356 12.186L10.1636 8.6375L12.7816 6.24211C12.9742 6.06632 13.0477 5.78869 12.9687 5.53466Z" stroke="black" stroke-width="2" stroke-linecap="round" stroke-linejoin="round"/>
<path fill-rule="evenodd" clip-rule="evenodd" d="M12.9687 5.53466C12.8901 5.2811 12.6746 5.10101 12.4196 5.07703L8.95612 4.74887L7.58655 1.40383C7.48556 1.15869 7.25558 1 7.00005 1C6.74452 1 6.51453 1.15869 6.41355 1.40441L5.04398 4.74887L1.57991 5.07703C1.32538 5.10159 1.11041 5.2811 1.0314 5.53466C0.95239 5.78821 1.02536 6.06632 1.2179 6.24163L3.83591 8.6375L3.06392 12.186C3.00743 12.4469 3.10448 12.7166 3.31194 12.8731C3.42346 12.9572 3.55392 13 3.68549 13C3.79892 13 3.91144 12.9681 4.01243 12.905L7.00005 11.0418L9.98657 12.905C10.2051 13.0422 10.4806 13.0297 10.6876 12.8731C10.8952 12.7162 10.9921 12.4464 10.9356 12.186L10.1636 8.6375L12.7816 6.24211C12.9742 6.06632 13.0477 5.78869 12.9687 5.53466Z" stroke="black" stroke-opacity="0.2" stroke-width="2" stroke-linecap="round" stroke-linejoin="round"/>
<path fill-rule="evenodd" clip-rule="evenodd" d="M12.9687 5.53466C12.8901 5.2811 12.6746 5.10101 12.4196 5.07703L8.95612 4.74887L7.58655 1.40383C7.48556 1.15869 7.25558 1 7.00005 1C6.74452 1 6.51453 1.15869 6.41355 1.40441L5.04398 4.74887L1.57991 5.07703C1.32538 5.10159 1.11041 5.2811 1.0314 5.53466C0.95239 5.78821 1.02536 6.06632 1.2179 6.24163L3.83591 8.6375L3.06392 12.186C3.00743 12.4469 3.10448 12.7166 3.31194 12.8731C3.42346 12.9572 3.55392 13 3.68549 13C3.79892 13 3.91144 12.9681 4.01243 12.905L7.00005 11.0418L9.98657 12.905C10.2051 13.0422 10.4806 13.0297 10.6876 12.8731C10.8952 12.7162 10.9921 12.4464 10.9356 12.186L10.1636 8.6375L12.7816 6.24211C12.9742 6.06632 13.0477 5.78869 12.9687 5.53466Z" stroke="black" stroke-opacity="0.2" stroke-width="2" stroke-linecap="round" stroke-linejoin="round"/>
</svg>
