<svg width="24" height="24" viewBox="0 0 24 24" fill="none" xmlns="http://www.w3.org/2000/svg">
<g clip-path="url(#clip0_843_5277)">
<path d="M18.4449 3.5H17.8849C17.1449 3.5 16.5449 4.09994 16.5449 4.84V19.16C16.5449 19.9001 17.1449 20.5 17.8849 20.5H18.4449C19.185 20.5 19.7849 19.9001 19.7849 19.16V4.84C19.7849 4.09994 19.185 3.5 18.4449 3.5Z" fill="#7F7F7F"/>
<path d="M12.7848 6.73999H12.2248C11.4847 6.73999 10.8848 7.33993 10.8848 8.07999V19.16C10.8848 19.9001 11.4847 20.5 12.2248 20.5H12.7848C13.5248 20.5 14.1248 19.9001 14.1248 19.16V8.07999C14.1248 7.33993 13.5248 6.73999 12.7848 6.73999Z" fill="#7F7F7F"/>
<path d="M7.11484 11.6001H6.55484C5.81478 11.6001 5.21484 12.2 5.21484 12.9401V19.1601C5.21484 19.9002 5.81478 20.5001 6.55484 20.5001H7.11484C7.85491 20.5001 8.45484 19.9002 8.45484 19.1601V12.9401C8.45484 12.2 7.85491 11.6001 7.11484 11.6001Z" fill="#7F7F7F"/>
</g>
<defs>
<clipPath id="clip0_843_5277">
<rect width="14.57" height="17" fill="white" transform="translate(5.21484 3.5)"/>
</clipPath>
</defs>
</svg>
