<svg width="6" height="22" viewBox="0 0 6 22" fill="none" xmlns="http://www.w3.org/2000/svg">
<path fill-rule="evenodd" clip-rule="evenodd" d="M5.5 2.66663C5.5 4.04734 4.38071 5.16663 3 5.16663C1.61929 5.16663 0.5 4.04734 0.5 2.66663C0.5 1.28591 1.61929 0.166626 3 0.166626C4.38071 0.166626 5.5 1.28591 5.5 2.66663ZM5.5 11C5.5 12.3807 4.38071 13.5 3 13.5C1.61929 13.5 0.5 12.3807 0.5 11C0.5 9.61925 1.61929 8.49996 3 8.49996C4.38071 8.49996 5.5 9.61925 5.5 11ZM3 21.8333C4.38071 21.8333 5.5 20.714 5.5 19.3333C5.5 17.9526 4.38071 16.8333 3 16.8333C1.61929 16.8333 0.5 17.9526 0.5 19.3333C0.5 20.714 1.61929 21.8333 3 21.8333Z" fill="white"/>
</svg>
